<svg xmlns="http://www.w3.org/2000/svg" width="231.875" height="234.5" viewBox="0 0 231.875 234.5">
  <defs>
    <style>
      .cls-1 {
        fill: #fff;
        fill-rule: evenodd;
      }
    </style>
  </defs>
  <path id="is" class="cls-1" d="M508.025,547.312q-15.187,0-23.288,2.363-24.3,7.088-24.3,33.075a22.835,22.835,0,0,0,1.687,9.45q7.76,18.906,37.125,18.9,18.225,0,26.662-10.125,6.408-7.76,5.738-30.713H551.9a98.964,98.964,0,0,0,.675,17.55q3.709,23.288,33.75,23.288,16.872,0,27.675-8.269t9.788-23.794q-1.694-23.619-21.263-29.025a74.793,74.793,0,0,0-20.587-2.7H508.025ZM609.95,531.787q12.822-.332,12.825-11.812,0-8.772-10.8-13.5a48.776,48.776,0,0,0-17.887-3.713,62.209,62.209,0,0,0-19.576,2.7q-10.464,3.039-15.187,7.425-7.088,6.416-7.425,16.875h40.162a79.379,79.379,0,0,1,17.888,2.025h0Zm-130.612-2.025H531.65q-0.34-10.125-9.113-18.225-4.389-4.382-16.875-6.412-10.464-2.025-17.887-1.012,4.722,2.7,4.725,9.787t-3.881,10.969a17.368,17.368,0,0,1-9.281,4.893h0ZM439.85,524.7a18.846,18.846,0,0,1-4.05-12.15,19.515,19.515,0,0,1,7.425-15.862,45.783,45.783,0,0,1,16.538-8.438q18.9-2.7,29.025-2.7,26.325-.672,39.487,7.425,9.113,5.4,13.5,11.812a48.665,48.665,0,0,1,16.2-12.487q14.847-7.76,36.113-6.75,23.288,1.012,35.1,8.775a36.5,36.5,0,0,1,10.968,10.969,24.085,24.085,0,0,1,3.882,14.343q-0.341,16.541-14.175,20.588,11.809,6.415,18.9,23.625a78.738,78.738,0,0,1,6.076,30.038q0,36.789-28.35,55.012-10.125,6.416-27,8.1-26.666,2.357-39.15-4.388-15.528-8.432-18.225-20.25-3.719,13.5-16.875,20.082T486.088,657q-29.031-2.357-43.538-20.925-13.5-17.213-13.5-42.187,0-21.6,12.15-36.788,6.406-8.1,12.488-9.788H422.975v-17.55h24.638q-5.4-2.025-7.763-5.062h0ZM475.375,480a8.553,8.553,0,0,1,1.012-4.419,24.833,24.833,0,0,1,15.863-12.593,125.056,125.056,0,0,1,19.912-4.087q14.177-1.361,31.051-1.361a282.394,282.394,0,0,1,37.124,2.025,68.658,68.658,0,0,1,20.588,5.907q9.793,4.555,10.8,14.006,0.681,8.1-9.787,11.138l10.462,7.424q20.59-5.734,20.588-28.012,0-14.175-6.075-22.275-8.1-10.8-23.625-16.538-21.6-8.1-60.075-8.1-42.186,0-63.113,9.829-14.847,7.119-21.6,17.292-3.71,5.766-5.062,17.629-0.673,7.119,3.712,16.274,5.4,11.532,16.2,13.9l10.462-6.808q-8.432-1.692-8.437-11.232h0Z" transform="translate(-422.969 -423.125)"/>
</svg>
